<svg width="858" height="813" viewBox="0 0 858 813" fill="none" xmlns="http://www.w3.org/2000/svg">
<path d="M81.0879 140.972H177.874V347.803H81.0879V140.972ZM165.115 228.806H292.347V390.283H165.115V228.806ZM705.97 216.307V171.027H594.009V354.936H700.873V437H873.088V216.307H705.97ZM378.152 333.611H475.13V122H378.152V333.611Z" fill="#4A9FF4"/>
<path d="M845.859 207.736V336.349H796.936V194.132L733.334 177.774V256.322H665.966V109H567.206V220.34H524.762V151.864H419.396V239.081H353.932V127.092L239.949 147.907V300.335H205.909V207.736H110.202V252.77H62.0879V490H927.088V279.062V207.736H845.859Z" fill="#4391EF"/>
<path d="M342.334 154.849H331.129V162.367H342.334V154.849Z" fill="#53A7F4"/>
<path d="M342.334 169.331H331.129V176.849H342.334V169.331Z" fill="#53A7F4"/>
<path d="M342.334 198.295H331.129V205.812H342.334V198.295Z" fill="#53A7F4"/>
<path d="M322.944 140.367H311.739V147.884H322.944V140.367Z" fill="#53A7F4"/>
<path d="M322.944 154.849H311.739V162.367H322.944V154.849Z" fill="#53A7F4"/>
<path d="M322.944 183.813H311.739V191.331H322.944V183.813Z" fill="#53A7F4"/>
<path d="M784.635 203.941H773.43V211.459H784.635V203.941Z" fill="#53A7F4"/>
<path d="M784.635 232.299H773.43V239.817H784.635V232.299Z" fill="#53A7F4"/>
<path d="M784.635 246.473H773.43V253.99H784.635V246.473Z" fill="#53A7F4"/>
<path d="M784.635 260.647H773.43V268.164H784.635V260.647Z" fill="#53A7F4"/>
<path d="M784.635 289.004H773.43V296.522H784.635V289.004Z" fill="#53A7F4"/>
<path d="M762.48 203.941H751.275V211.459H762.48V203.941Z" fill="#53A7F4"/>
<path d="M762.48 218.115H751.275V225.632H762.48V218.115Z" fill="#53A7F4"/>
<path d="M762.48 260.647H751.275V268.164H762.48V260.647Z" fill="#53A7F4"/>
<path d="M322.944 198.295H311.739V205.812H322.944V198.295Z" fill="#53A7F4"/>
<path d="M322.944 212.777H311.739V220.295H322.944V212.777Z" fill="#53A7F4"/>
<path d="M303.542 154.849H292.337V162.367H303.542V154.849Z" fill="#53A7F4"/>
<path d="M303.542 183.813H292.337V191.331H303.542V183.813Z" fill="#53A7F4"/>
<path d="M303.542 198.295H292.337V205.812H303.542V198.295Z" fill="#53A7F4"/>
<path d="M632.241 122.025H620.557V132.127H632.241V122.025Z" fill="#53A7F4"/>
<path d="M632.241 141.484H620.557V151.585H632.241V141.484Z" fill="#53A7F4"/>
<path d="M632.241 160.931H620.557V171.032H632.241V160.931Z" fill="#53A7F4"/>
<path d="M632.241 180.389H620.557V190.491H632.241V180.389Z" fill="#53A7F4"/>
<path d="M632.241 199.837H620.557V209.938H632.241V199.837Z" fill="#53A7F4"/>
<path d="M611.999 122.025H600.316V132.127H611.999V122.025Z" fill="#53A7F4"/>
<path d="M611.999 141.484H600.316V151.585H611.999V141.484Z" fill="#53A7F4"/>
<path d="M611.999 199.837H600.316V209.938H611.999V199.837Z" fill="#53A7F4"/>
<path d="M591.758 122.025H580.075V132.127H591.758V122.025Z" fill="#53A7F4"/>
<path d="M591.758 160.931H580.075V171.032H591.758V160.931Z" fill="#53A7F4"/>
<path d="M591.758 180.389H580.075V190.491H591.758V180.389Z" fill="#53A7F4"/>
<path d="M591.758 199.837H580.075V209.938H591.758V199.837Z" fill="#53A7F4"/>
<path d="M433.973 162.25H427.233V264.198H433.973V162.25Z" fill="#53A7F4"/>
<path d="M449.888 162.25H443.137V264.198H449.888V162.25Z" fill="#53A7F4"/>
<path d="M187.596 222.565V218.036H142.861V222.565H187.596Z" fill="#53A7F4"/>
<path d="M187.6 233.245V228.715H142.865V233.245H187.6Z" fill="#53A7F4"/>
<path d="M187.595 261.704V257.174H142.86V261.704H187.595Z" fill="#53A7F4"/>
<path d="M187.603 250.228V245.699H142.867V250.228H187.603Z" fill="#53A7F4"/>
<path d="M187.599 272.383V267.854H142.864V272.383H187.599Z" fill="#53A7F4"/>
<path d="M465.77 162.25H459.03V264.198H465.77V162.25Z" fill="#53A7F4"/>
<path d="M481.675 162.25H474.935V264.198H481.675V162.25Z" fill="#53A7F4"/>
<path d="M497.578 162.25H490.838V264.198H497.578V162.25Z" fill="#53A7F4"/>
<path d="M513.482 162.25H506.742V264.198H513.482V162.25Z" fill="#53A7F4"/>
<path d="M920.087 395.574C909.948 385.03 895.844 388.175 885.885 399.124C875.915 410.073 869.464 427.397 864.798 445.137C866.488 436.512 863.373 425.606 857.783 423.815C852.192 422.034 846.4 432.802 849.301 440.584C844.71 424.444 839.969 408.047 832.508 394.859C826.971 385.062 819.669 377.087 811.485 374.177C807.744 372.844 804.545 371.736 801.547 376.192C798.848 380.2 797.551 386.49 796.977 392.119C795.043 410.904 797.849 430.808 804.64 446.512C802.026 441.437 798.337 437.77 794.32 436.224C793.172 435.787 791.971 435.52 790.823 435.979C788.464 436.928 786.965 440.819 786.699 444.646C786.433 448.473 787.156 452.29 787.868 455.968C785.849 450.552 783.128 445.819 779.908 442.141C778.186 440.179 775.305 438.911 774.349 441.896C773.966 443.1 774.104 444.529 774.253 445.862C774.721 450.019 775.189 454.177 775.656 458.324C765.442 445.105 752.433 437.429 739.253 436.864C737.213 436.778 735.087 436.885 733.28 438.367C730.41 440.723 728.965 446.139 728.933 451.256C728.901 456.373 730.017 461.32 731.123 466.128C716.646 449.572 697.345 444.092 680.137 451.65C674.356 454.188 668.627 458.335 664.769 465.606C663.44 468.111 662.324 471.075 662.122 474.337C661.708 480.926 665.077 486.704 668.776 489.774C674.749 494.721 681.764 495.03 688.502 494.998C734.534 494.785 780.354 483.9 826.429 486.405C833.635 486.8 841.936 489.849 849.046 488.09C855.572 486.48 861.769 485.393 868.465 484.955C884.918 483.879 901.371 482.717 917.813 481.469" fill="#3A84EF"/>
<path d="M62.0879 395.574C72.2275 385.03 86.3316 388.175 96.2905 399.124C106.26 410.073 112.712 427.397 117.378 445.137C115.688 436.512 118.802 425.606 124.392 423.815C129.983 422.034 135.776 432.802 132.874 440.584C137.465 424.444 142.206 408.047 149.667 394.859C155.205 385.062 162.506 377.087 170.69 374.177C174.432 372.844 177.631 371.736 180.628 376.192C183.328 380.2 184.624 386.49 185.198 392.119C187.133 410.904 184.327 430.808 177.535 446.512C180.15 441.437 183.838 437.77 187.855 436.224C189.003 435.787 190.204 435.52 191.352 435.979C193.712 436.928 195.21 440.819 195.476 444.646C195.742 448.473 195.019 452.29 194.307 455.968C196.326 450.552 199.047 445.819 202.268 442.141C203.99 440.179 206.87 438.911 207.826 441.896C208.209 443.1 208.071 444.529 207.922 445.862C207.454 450.019 206.987 454.177 206.519 458.324C216.733 445.105 229.742 437.429 242.922 436.864C244.963 436.778 247.088 436.885 248.895 438.367C251.765 440.723 253.21 446.139 253.242 451.256C253.274 456.373 252.158 461.32 251.053 466.128C265.529 449.572 284.83 444.092 302.038 451.65C307.82 454.188 313.549 458.335 317.407 465.606C318.735 468.111 319.851 471.075 320.053 474.337C320.468 480.926 317.098 486.704 313.4 489.774C307.427 494.721 300.412 495.03 293.673 494.998C247.641 494.785 201.821 483.9 155.747 486.405C148.54 486.8 140.24 489.849 133.129 488.09C126.603 486.48 120.407 485.393 113.711 484.955C97.2577 483.879 80.8047 482.717 64.3624 481.469" fill="#3A84EF"/>
<path d="M925.088 488H60.0879V813H925.088V488Z" fill="#2C2AA1"/>
<path d="M974.738 521.272C979.2 503.406 979.391 500.923 974.175 483.215C971.657 474.668 967.854 466.131 960.896 459.75C933.083 434.245 890.673 442.232 873.388 465.772C860.417 483.427 855.987 505.762 861.405 526.227C858.101 521.843 853.267 517.891 847.318 517.289C838.606 516.401 830.851 523.279 828.779 530.76C826.708 538.24 828.833 546.069 830.947 553.539C825.529 542.931 812.855 535.144 799.617 535.504C786.38 535.874 773.791 545.171 772.389 556.73C771.252 566.101 774.917 575.219 782.226 583.133C767.874 573.307 749.272 568.69 731.084 569.429C712.896 570.169 697.343 574.786 682.459 583.988C672.824 589.947 659.236 607.634 661.297 617.808C663.294 627.666 677.105 626.282 687.962 629.346C701.284 633.107 714.277 633.815 728.099 634.375C740.284 634.861 752.671 637.925 764.995 639.119C794.996 642.014 825.348 643.208 855.424 640.419C884.586 637.714 915.065 630.392 934.751 611.332C954.341 592.356 959.546 562.932 947.425 539.635" fill="#33E5C5"/>
<path d="M3.43655 521.272C-1.25357 503.418 -1.21664 500.923 3.99957 483.215C6.5174 474.668 10.3206 466.131 17.2792 459.75C45.092 434.245 87.5018 442.232 104.787 465.772C117.758 483.427 122.188 505.762 116.77 526.227C120.074 521.843 124.908 517.891 130.857 517.289C139.569 516.401 147.324 523.279 149.395 530.76C151.467 538.24 149.342 546.069 147.228 553.539C152.646 542.931 165.32 535.145 178.557 535.504C191.795 535.874 204.384 545.171 205.786 556.73C206.923 566.101 203.257 575.219 195.948 583.133C210.301 573.307 228.903 568.69 247.091 569.429C265.279 570.169 280.832 574.786 295.715 583.988C305.351 589.947 318.939 607.634 316.878 617.808C314.881 627.666 301.07 626.282 290.212 629.346C276.89 633.107 263.898 633.815 250.076 634.375C237.891 634.861 225.504 637.925 213.18 639.119C183.179 642.014 152.827 643.208 122.751 640.419C93.5892 637.714 63.1098 630.392 43.4241 611.332C23.834 592.356 30.75 539.635 30.75 539.635" fill="#33E5C5"/>
<path d="M744 294L573.5 385.5V405.5L738 527L744 294Z" fill="url(#paint0_linear_1_31)"/>
<ellipse cx="495" cy="591" rx="178" ry="5" fill="#1F1F1F" fill-opacity="0.09"/>
<path d="M532.457 389.616H544.463C546.702 389.616 548.508 391.436 548.508 393.671V401.195C548.508 403.44 546.693 405.25 544.463 405.25H534.746V402.258C531.821 402.258 529.006 401.093 526.937 399.019L525.479 397.557L532.457 389.616Z" fill="#BE653B"/>
<path d="M532.457 389.616L525.479 397.548L495.506 390.568L499.652 379.448L532.457 389.616Z" fill="#BE653B"/>
<path d="M499.652 379.448L501.119 379.899L501.585 391.98L495.506 390.568L499.652 379.448Z" fill="#9A4C28"/>
<path d="M442.259 336.439C446.21 333.328 451.908 333.889 455.189 337.698L486.281 373.863L491.902 375.759L486.679 389.761L483.729 389.123C479.065 388.111 474.809 385.714 471.519 382.245L441.25 350.356C437.426 346.335 437.892 339.874 442.259 336.439Z" fill="#F48116"/>
<path d="M486.51 390.211L486.68 389.769L491.903 375.767L492.42 374.382C492.717 373.591 493.598 373.183 494.387 373.48L499.525 375.41C500.314 375.708 500.721 376.592 500.424 377.383L500.008 378.505L495.125 391.597L494.523 393.212C494.226 394.003 493.344 394.411 492.556 394.114L487.417 392.184C486.62 391.886 486.213 391.002 486.51 390.211Z" fill="#E4E4E5"/>
<path d="M453.222 339.211C450.33 335.844 445.497 334.943 441.597 337.026C441.809 336.822 442.03 336.626 442.267 336.439C446.218 333.328 451.916 333.889 455.197 337.698L486.289 373.863L491.911 375.759L491.072 378.003L484.763 375.869L453.222 339.211Z" fill="#FF9C1A"/>
<path d="M453.078 411.695L517.882 428.987C529.083 431.979 534.314 444.893 528.345 454.865L490.572 518.023L469.535 508.663L499.763 451.031L438.206 438.134C426.302 435.635 419.281 423.223 423.275 411.703H453.078V411.695Z" fill="#0044CC"/>
<path d="M472.266 512.973L473.843 510.576L485.798 515.889L482.983 521.024L469.663 517.275C470.477 515.813 471.341 514.376 472.266 512.973Z" fill="#C15F32"/>
<path d="M475.555 523.311L476.666 526.15L475.182 525.105C474.597 524.688 473.894 524.467 473.173 524.467H466.195C467.212 522.002 468.365 519.604 469.671 517.275L482.991 521.024L482.177 522.495H476.107C475.683 522.495 475.394 522.92 475.555 523.311Z" fill="white"/>
<path d="M490.869 535.553H462.634L463.151 533.555C463.948 530.452 464.974 527.426 466.195 524.476H473.173C473.894 524.476 474.598 524.697 475.183 525.113L476.666 526.159L475.556 523.319C475.403 522.928 475.691 522.503 476.115 522.503H482.186L486.671 526.729C488.706 528.641 491.386 529.713 494.175 529.713H497.236C500.229 529.713 502.841 531.387 504.189 533.861L498.364 534.898C495.88 535.332 493.378 535.553 490.869 535.553Z" fill="#422C4F"/>
<path d="M490.868 535.553C493.378 535.553 495.879 535.332 498.355 534.89L504.18 533.853C504.748 534.898 505.096 536.097 505.147 537.364L496.252 538.172C494.845 538.299 493.437 538.367 492.021 538.367H461.921L462.642 535.553H490.868Z" fill="white"/>
<path d="M473.843 510.576L485.798 515.889L484.501 518.244L471.494 514.18L473.843 510.576Z" fill="#9A4C28"/>
<path d="M553.069 405.871H556.13L564.007 433.799C570.171 455.664 567.67 479.044 557.08 499.082L553.239 500.535L553.069 405.871Z" fill="#077AED"/>
<path d="M564.007 433.807L556.13 405.88H558.996L575.157 466.028C576.615 471.443 581.508 475.209 587.104 475.209C587.528 475.209 587.867 475.549 587.867 475.975V487.452L557.072 499.09C567.67 479.052 570.171 455.664 564.007 433.807Z" fill="#056CE5"/>
<path d="M589.978 590.991C613.738 590.991 633 571.679 633 547.855C633 524.031 613.738 504.718 589.978 504.718C566.218 504.718 546.956 524.031 546.956 547.855C546.956 571.679 566.218 590.991 589.978 590.991Z" fill="#121212"/>
<path d="M589.978 578.919C607.089 578.919 620.96 565.011 620.96 547.855C620.96 530.698 607.089 516.79 589.978 516.79C572.867 516.79 558.996 530.698 558.996 547.855C558.996 565.011 572.867 578.919 589.978 578.919Z" fill="#001B66"/>
<path d="M589.978 573.215C603.947 573.215 615.271 561.861 615.271 547.855C615.271 533.849 603.947 522.495 589.978 522.495C576.009 522.495 564.686 533.849 564.686 547.855C564.686 561.861 576.009 573.215 589.978 573.215Z" fill="#649FCB"/>
<path d="M589.978 522.495C594.752 522.495 599.22 523.821 603.036 526.133C601.28 525.691 599.432 525.445 597.541 525.445C585.196 525.445 575.191 535.477 575.191 547.855C575.191 560.233 585.196 570.265 597.541 570.265C599.441 570.265 601.28 570.027 603.036 569.576C599.229 571.88 594.76 573.215 589.978 573.215C576.005 573.215 564.686 561.857 564.686 547.855C564.677 533.853 576.005 522.495 589.978 522.495Z" fill="#171819" fill-opacity="0.1"/>
<path d="M589.978 559.043C596.141 559.043 601.136 554.034 601.136 547.855C601.136 541.676 596.141 536.667 589.978 536.667C583.816 536.667 578.82 541.676 578.82 547.855C578.82 554.034 583.816 559.043 589.978 559.043Z" fill="#00308D"/>
<path d="M595.313 553.211C598.264 550.253 598.264 545.456 595.313 542.498C592.363 539.54 587.58 539.54 584.63 542.498C581.679 545.456 581.679 550.253 584.63 553.211C587.58 556.169 592.363 556.169 595.313 553.211Z" fill="#8695B8"/>
<path d="M368.976 590.991C392.736 590.991 411.998 571.679 411.998 547.855C411.998 524.031 392.736 504.718 368.976 504.718C345.216 504.718 325.954 524.031 325.954 547.855C325.954 571.679 345.216 590.991 368.976 590.991Z" fill="#121212"/>
<path d="M368.976 578.919C386.087 578.919 399.958 565.011 399.958 547.855C399.958 530.698 386.087 516.79 368.976 516.79C351.865 516.79 337.994 530.698 337.994 547.855C337.994 565.011 351.865 578.919 368.976 578.919Z" fill="#001B66"/>
<path d="M368.976 573.215C382.945 573.215 394.269 561.861 394.269 547.855C394.269 533.849 382.945 522.495 368.976 522.495C355.007 522.495 343.684 533.849 343.684 547.855C343.684 561.861 355.007 573.215 368.976 573.215Z" fill="#649FCB"/>
<path d="M368.976 522.495C373.75 522.495 378.218 523.821 382.034 526.133C380.278 525.691 378.43 525.445 376.539 525.445C364.194 525.445 354.189 535.477 354.189 547.855C354.189 560.233 364.194 570.265 376.539 570.265C378.439 570.265 380.278 570.027 382.034 569.576C378.227 571.88 373.758 573.215 368.976 573.215C355.003 573.215 343.684 561.857 343.684 547.855C343.675 533.853 355.003 522.495 368.976 522.495Z" fill="#171819" fill-opacity="0.1"/>
<path d="M368.976 559.043C375.139 559.043 380.134 554.034 380.134 547.855C380.134 541.676 375.139 536.667 368.976 536.667C362.814 536.667 357.818 541.676 357.818 547.855C357.818 554.034 362.814 559.043 368.976 559.043Z" fill="#00308D"/>
<path d="M374.313 553.209C377.263 550.251 377.263 545.455 374.313 542.497C371.363 539.539 366.579 539.539 363.629 542.497C360.679 545.455 360.679 550.251 363.629 553.209C366.579 556.167 371.363 556.167 374.313 553.209Z" fill="#8695B8"/>
<path d="M587.901 490.725C565.737 491.422 546.786 506.98 540.894 528.403L539.935 531.889L538.893 532.399L540.894 525.139C546.786 503.707 565.745 488.157 587.901 487.46C588.469 487.443 589.045 487.435 589.622 487.435C599.161 487.435 608.309 489.926 616.356 494.584L614.889 497.033C607.207 492.901 598.584 490.699 589.622 490.699C589.045 490.691 588.477 490.699 587.901 490.725Z" fill="white"/>
<path d="M583.856 510.244L539.936 531.889L540.894 528.403C546.786 506.971 565.745 491.422 587.901 490.725C588.469 490.708 589.045 490.699 589.622 490.699C598.584 490.699 607.207 492.901 614.889 497.033L607.004 510.244H583.856Z" fill="#337AE2"/>
<path d="M536.815 535.664H557.343C566.568 535.664 575.42 531.991 581.949 525.445C588.477 518.899 597.329 515.226 606.554 515.226H630.897L623.198 507.507C614.296 498.58 602.222 493.564 589.63 493.564C573.41 493.564 558.318 501.862 549.593 515.575L536.815 535.664Z" fill="#0057D8"/>
<path d="M553.07 405.871L560.947 433.799C567.263 456.192 564.491 480.183 553.239 500.535L549.305 507.651C538.172 527.783 517.026 540.28 494.065 540.28H300.271L307.216 515.013C314.067 490.087 330.049 468.68 351.976 455.078L364.525 447.29H472.334V452.009C472.334 455.146 470.341 457.934 467.373 458.929C455.842 462.823 447.558 473.016 446.083 485.131C443.777 504.03 458.488 520.692 477.48 520.692H493.243C508.352 520.692 522.418 512.948 530.516 500.153L537.825 488.616C545.888 475.89 548.644 460.502 545.506 445.76L537.019 405.871H553.07Z" fill="#04286C"/>
<path d="M364.524 447.291H481.041V433.425H388.13C381.669 433.425 375.479 436.043 370.968 440.676L364.524 447.291Z" fill="#FEFFFD"/>
<path d="M432.271 542.193H484.585C508.233 542.193 530.041 529.313 541.496 508.578L545.43 501.462C557.004 480.523 559.802 456.311 553.307 433.28C551.221 425.867 552.188 417.773 555.969 411.074C556.486 410.156 556.164 408.983 555.248 408.464C554.324 407.945 553.163 408.269 552.645 409.187C548.364 416.779 547.27 425.935 549.635 434.326C555.85 456.379 553.18 479.562 542.098 499.609L538.163 506.725C527.378 526.244 506.851 538.367 484.594 538.367H432.279C431.219 538.367 430.363 539.226 430.363 540.288C430.354 541.343 431.211 542.193 432.271 542.193Z" fill="#FAFDFF"/>
<path d="M430.371 532.773H310.505L312.337 534.61C315.271 537.551 319.247 539.2 323.393 539.2H417.746C422.74 539.2 427.429 536.811 430.371 532.773Z" fill="#056CE5"/>
<path d="M378.023 552.522C392.343 552.522 403.951 540.883 403.951 526.525C403.951 512.166 392.343 500.527 378.023 500.527C363.703 500.527 352.094 512.166 352.094 526.525C352.094 540.883 363.703 552.522 378.023 552.522Z" fill="#FAFDFF"/>
<path d="M358.081 526.525C358.081 515.498 367.026 506.529 378.023 506.529C389.02 506.529 397.965 515.498 397.965 526.525C397.965 537.551 389.02 546.52 378.023 546.52C367.026 546.52 358.081 537.551 358.081 526.525ZM360.2 526.525C360.2 536.378 368.196 544.395 378.023 544.395C387.85 544.395 395.846 536.378 395.846 526.525C395.846 516.671 387.85 508.654 378.023 508.654C368.196 508.663 360.2 516.671 360.2 526.525Z" fill="#01328E"/>
<path d="M365.075 527.587H390.97C391.555 527.587 392.03 527.111 392.03 526.525C392.03 525.938 391.555 525.462 390.97 525.462H365.075C364.49 525.462 364.016 525.938 364.016 526.525C364.016 527.111 364.49 527.587 365.075 527.587Z" fill="#495375"/>
<path d="M367.305 523.337H388.749C389.334 523.337 389.808 522.86 389.808 522.274C389.808 521.687 389.334 521.211 388.749 521.211H367.305C366.72 521.211 366.246 521.687 366.246 522.274C366.246 522.86 366.72 523.337 367.305 523.337Z" fill="#495375"/>
<path d="M370.299 519.086H385.747C386.332 519.086 386.807 518.61 386.807 518.023C386.807 517.436 386.332 516.96 385.747 516.96H370.299C369.714 516.96 369.239 517.436 369.239 518.023C369.239 518.601 369.714 519.086 370.299 519.086Z" fill="#495375"/>
<path d="M373.86 514.827H382.186C382.771 514.827 383.246 514.35 383.246 513.764C383.246 513.177 382.771 512.701 382.186 512.701H373.86C373.275 512.701 372.8 513.177 372.8 513.764C372.8 514.35 373.275 514.827 373.86 514.827Z" fill="#495375"/>
<path d="M367.305 531.847H388.749C389.334 531.847 389.808 531.37 389.808 530.784C389.808 530.197 389.334 529.721 388.749 529.721H367.305C366.72 529.721 366.246 530.197 366.246 530.784C366.246 531.37 366.72 531.847 367.305 531.847Z" fill="#495375"/>
<path d="M370.299 536.097H385.747C386.332 536.097 386.807 535.621 386.807 535.035C386.807 534.448 386.332 533.972 385.747 533.972H370.299C369.714 533.972 369.239 534.448 369.239 535.035C369.239 535.621 369.714 536.097 370.299 536.097Z" fill="#01328E"/>
<path d="M373.86 540.348H382.186C382.771 540.348 383.246 539.872 383.246 539.285C383.246 538.699 382.771 538.223 382.186 538.223H373.86C373.275 538.223 372.8 538.699 372.8 539.285C372.8 539.872 373.275 540.348 373.86 540.348Z" fill="#01328E"/>
<path d="M350.043 470.219C362.379 462.704 376.539 458.725 390.97 458.725H395.812C420.4 458.725 441.25 478.891 441.233 503.545C441.225 514.716 437.129 524.926 430.372 532.765H396.558H362.744H310.497L315.093 516.374C320.494 497.109 332.983 480.616 350.043 470.219Z" fill="#077AED"/>
<path d="M356.953 486.967C365.983 481.467 376.352 478.551 386.926 478.551H390.47C408.479 478.551 423.741 493.318 423.733 511.375C423.724 519.553 420.731 527.035 415.779 532.773H391.021H366.263H328.006L331.372 520.769C335.323 506.657 344.463 494.576 356.953 486.967Z" fill="#0057D8"/>
<path d="M356.41 526.15H396.761C397.397 526.15 397.906 525.632 397.906 525.003C397.906 524.374 397.389 523.855 396.761 523.855H356.41C355.774 523.855 355.266 524.374 355.266 525.003C355.266 525.632 355.774 526.15 356.41 526.15Z" fill="white"/>
<path d="M357.648 521.594H397.999C398.635 521.594 399.144 521.075 399.144 520.446C399.144 519.808 398.627 519.298 397.999 519.298H357.648C357.012 519.298 356.503 519.817 356.503 520.446C356.503 521.084 357.012 521.594 357.648 521.594Z" fill="white"/>
<path d="M358.895 517.045H399.246C399.882 517.045 400.39 516.527 400.39 515.898C400.39 515.26 399.873 514.75 399.246 514.75H358.895C358.259 514.75 357.75 515.269 357.75 515.898C357.742 516.527 358.259 517.045 358.895 517.045Z" fill="white"/>
<path d="M360.132 512.489H400.483C401.119 512.489 401.628 511.97 401.628 511.341C401.628 510.712 401.111 510.193 400.483 510.193H360.132C359.497 510.193 358.988 510.712 358.988 511.341C358.988 511.97 359.505 512.489 360.132 512.489Z" fill="white"/>
<path d="M361.379 507.932H401.73C402.366 507.932 402.875 507.413 402.875 506.784C402.875 506.146 402.358 505.636 401.73 505.636H361.379C360.743 505.636 360.234 506.155 360.234 506.784C360.234 507.413 360.743 507.932 361.379 507.932Z" fill="white"/>
<path d="M472.334 447.29H364.524C366.907 449.679 370.146 451.031 373.521 451.031H462.354C466.017 451.023 469.561 449.696 472.334 447.29Z" fill="#908B91"/>
<path d="M537.011 405.871H559.005H569.137V385.229H562.159C556.173 385.229 550.263 386.547 544.837 389.081L539.673 391.495C536.358 393.042 534.62 396.749 535.552 400.303L537.011 405.871Z" fill="#056CE5"/>
<path d="M572.503 385.229H569.128V405.871H572.503V385.229Z" fill="#FCFFFD"/>
<path d="M574.233 385.229H572.512V405.871H574.233V385.229Z" fill="#FF9717"/>
<path d="M313.744 444.332C313.295 443.881 313.295 443.15 313.744 442.708C314.194 442.258 314.914 442.258 315.364 442.708L324.97 452.34H321.723L313.744 444.332Z" fill="#C7D2D7"/>
<path d="M324.971 452.34L340.538 467.949C340.987 468.4 340.987 469.122 340.538 469.573C340.317 469.794 340.021 469.913 339.724 469.913C339.427 469.913 339.139 469.802 338.91 469.573L321.723 452.34H324.971Z" fill="white"/>
<path d="M371.969 456.719H436.629C437.689 456.719 438.545 455.86 438.545 454.797C438.545 453.735 437.689 452.876 436.629 452.876H371.969C367.348 452.876 363.007 451.074 359.743 447.801C355.757 443.805 350.45 441.603 344.811 441.603H281.915C280.855 441.603 279.999 442.462 279.999 443.524C279.999 444.587 280.855 445.446 281.915 445.446H344.811C349.432 445.446 353.773 447.248 357.038 450.521C361.023 454.508 366.331 456.719 371.969 456.719Z" fill="white"/>
<path d="M553.069 405.871H537.01L537.375 407.614H553.561L553.069 405.871Z" fill="#077AED"/>
<path d="M254.631 441.597L367.697 441.597L367.697 357.747L254.631 357.747L254.631 441.597Z" fill="#F0BF6C"/>
<path d="M251.401 357.746L370.936 357.746L370.936 344.067L251.401 344.067L251.401 357.746Z" fill="#F0BF6C"/>
<path d="M254.631 364.394L367.697 364.394L367.697 357.745L254.631 357.745L254.631 364.394Z" fill="#EBA25D"/>
<path d="M353.596 374.441L354.104 376.6H311.167L295.787 374.441H353.596Z" fill="#CC6164"/>
<path d="M352.824 371.04L353.333 373.208H278.049L262.668 371.04H352.824Z" fill="#CC6164"/>
<path d="M353.596 420.842L354.104 423.002H311.167L295.787 420.842H353.596Z" fill="#CC6164"/>
<path d="M352.824 417.442L353.333 419.601H278.049L262.668 417.442H352.824Z" fill="#CC6164"/>
<path d="M453.078 411.695L507.123 427.89C519.078 431.469 524.462 445.395 518.044 456.124L481.016 518.023L459.98 508.663L490.207 451.031L428.651 438.134C416.746 435.635 409.726 423.223 413.719 411.703H453.078V411.695Z" fill="#0159D7"/>
<path d="M462.719 512.973L464.296 510.576L476.251 515.889L473.436 521.024L460.116 517.275C460.93 515.813 461.795 514.376 462.719 512.973Z" fill="#C15F32"/>
<path d="M466 523.311L467.111 526.151L465.627 525.105C465.042 524.688 464.338 524.467 463.618 524.467H456.64C457.657 522.002 458.81 519.604 460.116 517.275L473.436 521.024L472.631 522.495H466.56C466.136 522.495 465.848 522.92 466 523.311Z" fill="white"/>
<path d="M481.322 535.553H453.087L453.604 533.555C454.401 530.452 455.427 527.426 456.648 524.476H463.626C464.347 524.476 465.051 524.697 465.636 525.113L467.119 526.159L466.009 523.32C465.856 522.928 466.144 522.503 466.568 522.503H472.639L477.125 526.729C479.16 528.641 481.839 529.713 484.628 529.713H487.689C490.682 529.713 493.294 531.387 494.642 533.861L488.817 534.899C486.333 535.332 483.831 535.553 481.322 535.553Z" fill="#FB8F13"/>
<path d="M481.321 535.553C483.831 535.553 486.332 535.332 488.808 534.89L494.633 533.853C495.201 534.899 495.549 536.097 495.6 537.364L486.706 538.172C485.298 538.299 483.891 538.367 482.475 538.367H452.375L453.095 535.553H481.321Z" fill="white"/>
<path d="M464.296 510.576L476.251 515.889L474.954 518.244L461.938 514.18L464.296 510.576Z" fill="#9A4C28"/>
<path d="M465.076 315.815L466.712 306.505C467.263 303.394 469.959 301.116 473.114 301.116H482.423L481.592 305.536C480.99 308.733 481.05 312.023 481.762 315.203L482.169 317.005C482.339 317.77 481.762 318.501 480.982 318.501H479.1C476.692 327.224 466.119 330.947 458.776 325.285L447.228 316.393L453.358 320.686C457.86 323.849 464.118 321.247 465.076 315.815Z" fill="#BE653B"/>
<path d="M483.025 297.936L482.423 301.124H473.114C469.959 301.124 467.255 303.394 466.712 306.514L465.076 315.823C464.118 321.256 457.869 323.857 453.358 320.695L447.228 316.401V297.936H483.025Z" fill="#9A4C28"/>
<path d="M447.219 316.401L458.776 325.294L457.233 329.715L447.219 316.401Z" fill="#422C4F"/>
<path d="M439.139 328.686L447.219 316.401L457.233 329.715L454.613 337.255L439.139 328.686Z" fill="#C15F32"/>
<path d="M475.48 308.469C475.302 309.532 475.624 310.476 476.2 310.569C476.777 310.663 477.379 309.881 477.557 308.809C477.735 307.747 477.413 306.803 476.836 306.709C476.26 306.616 475.658 307.398 475.48 308.469Z" fill="#422C4F"/>
<path d="M478.218 304.72C477.26 304.176 476.183 304.253 475.276 304.856C474.377 305.451 473.546 304.006 474.436 303.411C475.835 302.484 477.616 302.45 479.066 303.275C479.99 303.802 479.151 305.247 478.218 304.72Z" fill="#422C4F"/>
<path d="M475.954 314.973L474.089 315.619C471.359 316.563 468.399 316.656 465.618 315.874L460.963 314.556L462.057 312.372L465.618 313.366C468.408 314.14 471.359 314.055 474.089 313.111L475.954 312.465C477.607 311.895 479.295 311.453 481.016 311.156L481.686 311.037L482.296 313.468L481.016 313.664C479.295 313.961 477.599 314.403 475.954 314.973Z" fill="white"/>
<path d="M460.955 314.556L465.61 315.874C468.399 316.648 471.35 316.563 474.08 315.619L475.946 314.973C477.599 314.403 479.286 313.961 481.008 313.664L482.288 313.468L482.491 314.267C482.839 315.662 482.763 317.124 482.279 318.467L481.236 321.358C479.405 326.424 474.725 329.91 469.358 330.208C466.017 330.395 462.719 329.315 460.124 327.19L456.241 324.01L460.955 314.556Z" fill="#81D3CF"/>
<path opacity="0.3" d="M465.508 313.341L465.076 315.823C464.38 319.802 460.836 322.25 457.224 322.038L462.049 312.372L465.508 313.341Z" fill="#422C4F"/>
<path d="M458.776 318.442L462.303 328.524C462.422 328.856 462.151 329.196 461.795 329.153C459.158 328.839 456.826 327.292 455.495 324.988L451.018 317.209L458.776 318.442Z" fill="#454F6B"/>
<path d="M462.219 303.037L460.277 314.08C459.946 315.968 457.988 317.09 456.199 316.427L437.045 309.319V295.573C437.053 281.452 448.466 270 462.549 270C476.378 270 487.622 281.035 488.028 294.799H472.003C467.187 294.799 463.058 298.276 462.219 303.037Z" fill="#DF4268"/>
<path d="M446.711 290.761C447.949 290.761 449.153 290.089 449.763 288.907C452.264 284.104 457.165 281.12 462.549 281.12C464.448 281.12 465.992 279.573 465.992 277.668C465.992 275.764 464.448 274.217 462.549 274.217C454.596 274.217 447.355 278.621 443.667 285.711C442.785 287.403 443.438 289.485 445.125 290.37C445.634 290.633 446.176 290.761 446.711 290.761Z" fill="white"/>
<path d="M473.08 284.529C474.14 284.529 475.191 284.036 475.861 283.118C476.98 281.579 476.65 279.42 475.115 278.297L474.954 278.178C473.411 277.065 471.257 277.422 470.155 278.978C469.044 280.525 469.4 282.684 470.943 283.789L471.053 283.866C471.664 284.317 472.376 284.529 473.08 284.529Z" fill="white"/>
<path d="M456.198 316.427C457.987 317.09 459.946 315.968 460.277 314.08L462.218 303.037C463.058 298.276 467.187 294.799 472.012 294.799H488.037C488.045 295.054 488.054 295.309 488.054 295.573V297.936H472.859C469.146 297.936 465.975 300.605 465.33 304.27L463.397 315.228C462.71 319.139 458.547 321.375 454.91 319.776L438.868 312.72C437.757 312.227 437.036 311.13 437.036 309.915V309.311L456.198 316.427Z" fill="#A34262"/>
<path d="M457.767 405.795L453.078 385.229L459.81 348.248C460.616 343.844 458.522 339.423 454.613 337.255L439.139 328.686C437.112 327.564 434.603 327.819 432.847 329.332C420.095 340.291 412.117 355.806 410.616 372.579L407.699 405.072C407.377 408.626 410.175 411.695 413.736 411.695H453.087C456.173 411.695 458.462 408.813 457.767 405.795Z" fill="#FF9C1A"/>
<path d="M434.433 344.057L434.306 344.558C432.678 350.841 433.873 357.523 437.57 362.853L453.086 385.229L456.241 367.895L434.433 344.057Z" fill="#F48116"/>
<path d="M456.063 333.081L460.319 335.283L456.063 339.891L454.613 337.255L456.063 333.081Z" fill="#D4E9FF"/>
<path d="M460.319 335.283L461.285 343.147L456.902 338.981L460.319 335.283Z" fill="white"/>
<path d="M436.629 327.989L441.14 324.002L457.233 332.826L455.037 342.152L436.629 327.989Z" fill="white"/>
<path d="M527.498 393.459H539.504C541.742 393.459 543.548 395.278 543.548 397.514V405.038C543.548 407.282 541.734 409.093 539.504 409.093H529.787V406.101C526.862 406.101 524.047 404.936 521.978 402.862L520.52 401.399L527.498 393.459Z" fill="#C15F32"/>
<path d="M527.497 393.459L520.519 401.399L490.546 394.411L494.693 383.291L527.497 393.459Z" fill="#C15F32"/>
<path d="M494.693 383.291L496.151 383.75L496.626 395.831L490.546 394.411L494.693 383.291Z" fill="#9A4C28"/>
<path d="M437.299 340.291C441.25 337.179 446.948 337.741 450.229 341.549L481.322 377.715L486.943 379.61L481.72 393.612L478.769 392.975C474.106 391.963 469.85 389.566 466.56 386.097L436.29 354.208C432.466 350.178 432.932 343.726 437.299 340.291Z" fill="#FF9C1A"/>
<path d="M481.551 394.063L481.72 393.62L486.943 379.618L487.46 378.233C487.757 377.442 488.639 377.034 489.428 377.332L494.566 379.261C495.354 379.559 495.761 380.443 495.465 381.234L495.049 382.356L490.165 395.448L489.563 397.064C489.266 397.854 488.385 398.262 487.596 397.965L482.458 396.035C481.661 395.737 481.254 394.853 481.551 394.063Z" fill="white"/>
<path d="M448.262 343.053C445.371 339.687 440.538 338.786 436.638 340.869C436.85 340.665 437.07 340.469 437.308 340.282C441.259 337.17 446.957 337.732 450.238 341.54L481.33 377.706L486.951 379.601L486.112 381.846L479.804 379.712L448.262 343.053Z" fill="#F48114"/>
<path d="M525.844 406.084C524.928 404.409 522.842 403.797 521.172 404.715L521.164 404.723C521.231 404.681 521.291 404.621 521.367 404.587L529.066 400.362C530.736 399.444 532.822 400.056 533.738 401.731C534.653 403.406 534.043 405.497 532.373 406.415L524.691 410.641C526.183 409.663 526.717 407.682 525.844 406.084Z" fill="#422C4F"/>
<path d="M523.021 411.066C521.808 411.066 520.621 410.419 520.002 409.272C519.129 407.673 519.663 405.701 521.164 404.723L521.172 404.715C522.843 403.797 524.928 404.409 525.844 406.084C526.717 407.682 526.183 409.654 524.683 410.632L524.674 410.641C524.148 410.93 523.58 411.066 523.021 411.066Z" fill="#495375"/>
<path d="M343.896 284.529H469.468V282.047H343.896V284.529Z" fill="url(#paint1_linear_1_31)"/>
<path d="M329.057 289.468H454.63V286.986H329.057V289.468Z" fill="url(#paint2_linear_1_31)"/>
<path d="M431.567 477.318H557.148V474.844H431.567V477.318Z" fill="url(#paint3_linear_1_31)"/>
<path d="M416.729 482.257H542.31V479.783H416.729V482.257Z" fill="url(#paint4_linear_1_31)"/>
<path d="M327.421 343.394H452.993V340.92H327.421V343.394Z" fill="url(#paint5_linear_1_31)"/>
<path d="M273.699 338.497H446.032V336.014H273.699V338.497Z" fill="url(#paint6_linear_1_31)"/>
<path d="M292.946 333.081H465.279V330.599H292.946V333.081Z" fill="url(#paint7_linear_1_31)"/>
<path d="M415.389 401.952H540.97V399.469H415.389V401.952Z" fill="url(#paint8_linear_1_31)"/>
<path d="M361.675 397.047H534.009V394.573H361.675V397.047Z" fill="url(#paint9_linear_1_31)"/>
<path d="M380.922 391.64H553.256V389.157H380.922V391.64Z" fill="url(#paint10_linear_1_31)"/>
<path d="M217.212 476.306H342.793V473.824H217.212V476.306Z" fill="url(#paint11_linear_1_31)"/>
<path d="M200 471.401H372.333V468.927H200V471.401Z" fill="url(#paint12_linear_1_31)"/>
<path d="M219.247 465.985H391.581V463.511H219.247V465.985Z" fill="url(#paint13_linear_1_31)"/>
<g clip-path="url(#clip0_1_31)">
<path d="M162 69.82H221.18C221.18 69.82 225.47 53.1 210.46 60.39C208.74 50.53 203.74 47.28 191.88 58.55C189.44 46.66 168.86 55.24 162 69.82Z" fill="#68BDFC"/>
<path d="M456.5 9.01H485.48C485.48 9.01 487.58 0.819998 480.23 4.39C479.39 -0.440002 476.94 -2.03 471.13 3.49C469.94 -2.33 459.86 1.87 456.5 9.01Z" fill="#68BDFC"/>
<path d="M653.95 38.16H716.35C716.35 38.16 720.87 20.53 705.05 28.21C703.24 17.81 697.96 14.38 685.45 26.27C682.89 13.75 661.19 22.79 653.95 38.16Z" fill="#68BDFC"/>
</g>
<defs>
<linearGradient id="paint0_linear_1_31" x1="526.5" y1="393.5" x2="723" y2="386" gradientUnits="userSpaceOnUse">
<stop stop-color="white"/>
<stop offset="1" stop-color="white" stop-opacity="0"/>
</linearGradient>
<linearGradient id="paint1_linear_1_31" x1="469.472" y1="283.291" x2="343.892" y2="283.291" gradientUnits="userSpaceOnUse">
<stop stop-color="#7FCBD0" stop-opacity="0"/>
<stop offset="0.5443" stop-color="#7FCBD0"/>
<stop offset="0.9884" stop-color="#7FCBD0" stop-opacity="0"/>
</linearGradient>
<linearGradient id="paint2_linear_1_31" x1="454.633" y1="288.23" x2="329.053" y2="288.23" gradientUnits="userSpaceOnUse">
<stop stop-color="#7FCBD0" stop-opacity="0"/>
<stop offset="0.5443" stop-color="#7FCBD0"/>
<stop offset="0.9884" stop-color="#7FCBD0" stop-opacity="0"/>
</linearGradient>
<linearGradient id="paint3_linear_1_31" x1="557.147" y1="476.082" x2="431.567" y2="476.082" gradientUnits="userSpaceOnUse">
<stop stop-color="#7FCBD0" stop-opacity="0"/>
<stop offset="0.5443" stop-color="#7FCBD0"/>
<stop offset="0.9884" stop-color="#7FCBD0" stop-opacity="0"/>
</linearGradient>
<linearGradient id="paint4_linear_1_31" x1="542.309" y1="481.021" x2="416.729" y2="481.021" gradientUnits="userSpaceOnUse">
<stop stop-color="#7FCBD0" stop-opacity="0"/>
<stop offset="0.5443" stop-color="#7FCBD0"/>
<stop offset="0.9884" stop-color="#7FCBD0" stop-opacity="0"/>
</linearGradient>
<linearGradient id="paint5_linear_1_31" x1="452.997" y1="342.155" x2="327.417" y2="342.155" gradientUnits="userSpaceOnUse">
<stop stop-color="#7FCBD0" stop-opacity="0"/>
<stop offset="0.5443" stop-color="#7FCBD0"/>
<stop offset="0.9884" stop-color="#7FCBD0" stop-opacity="0"/>
</linearGradient>
<linearGradient id="paint6_linear_1_31" x1="446.036" y1="337.255" x2="273.702" y2="337.255" gradientUnits="userSpaceOnUse">
<stop stop-color="#7FCBD0" stop-opacity="0"/>
<stop offset="0.5443" stop-color="#7FCBD0"/>
<stop offset="0.9884" stop-color="#7FCBD0" stop-opacity="0"/>
</linearGradient>
<linearGradient id="paint7_linear_1_31" x1="465.281" y1="331.84" x2="292.946" y2="331.84" gradientUnits="userSpaceOnUse">
<stop stop-color="#7FCBD0" stop-opacity="0"/>
<stop offset="0.5443" stop-color="#7FCBD0"/>
<stop offset="0.9884" stop-color="#7FCBD0" stop-opacity="0"/>
</linearGradient>
<linearGradient id="paint8_linear_1_31" x1="540.972" y1="400.711" x2="415.392" y2="400.711" gradientUnits="userSpaceOnUse">
<stop stop-color="#7FCBD0" stop-opacity="0"/>
<stop offset="0.5443" stop-color="#7FCBD0"/>
<stop offset="0.9884" stop-color="#7FCBD0" stop-opacity="0"/>
</linearGradient>
<linearGradient id="paint9_linear_1_31" x1="534.011" y1="395.81" x2="361.676" y2="395.81" gradientUnits="userSpaceOnUse">
<stop stop-color="#7FCBD0" stop-opacity="0"/>
<stop offset="0.5443" stop-color="#7FCBD0"/>
<stop offset="0.9884" stop-color="#7FCBD0" stop-opacity="0"/>
</linearGradient>
<linearGradient id="paint10_linear_1_31" x1="553.255" y1="390.395" x2="380.921" y2="390.395" gradientUnits="userSpaceOnUse">
<stop stop-color="#7FCBD0" stop-opacity="0"/>
<stop offset="0.5443" stop-color="#7FCBD0"/>
<stop offset="0.9884" stop-color="#7FCBD0" stop-opacity="0"/>
</linearGradient>
<linearGradient id="paint11_linear_1_31" x1="342.793" y1="475.065" x2="217.214" y2="475.065" gradientUnits="userSpaceOnUse">
<stop stop-color="#7FCBD0" stop-opacity="0"/>
<stop offset="0.5443" stop-color="#7FCBD0"/>
<stop offset="0.9884" stop-color="#7FCBD0" stop-opacity="0"/>
</linearGradient>
<linearGradient id="paint12_linear_1_31" x1="372.335" y1="470.164" x2="200" y2="470.164" gradientUnits="userSpaceOnUse">
<stop stop-color="#7FCBD0" stop-opacity="0"/>
<stop offset="0.5443" stop-color="#7FCBD0"/>
<stop offset="0.9884" stop-color="#7FCBD0" stop-opacity="0"/>
</linearGradient>
<linearGradient id="paint13_linear_1_31" x1="391.579" y1="464.749" x2="219.244" y2="464.749" gradientUnits="userSpaceOnUse">
<stop stop-color="#7FCBD0" stop-opacity="0"/>
<stop offset="0.5443" stop-color="#7FCBD0"/>
<stop offset="0.9884" stop-color="#7FCBD0" stop-opacity="0"/>
</linearGradient>
<clipPath id="clip0_1_31">
<rect width="554.95" height="69.82" fill="white" transform="translate(162)"/>
</clipPath>
</defs>
</svg>
